# xmcd CD database file
#
# Track frame offsets:
#	150
#	25138
#	44640
#	68770
#	84058
#	103974
#	117109
#	148539
#	167538
#	188008
#
# Disc length: 2853 seconds
#
# Revision: 0
# Processed by: cddbd v1.5.1PL0 Copyright (c) Steve Scherf et al.
# Submitted via: CDex 1.51
#
DISCID=7c0b230a
DTITLE=Stacey Kent - Close your Eyes
DYEAR=1997
DGENRE=Jazz
TTITLE0=More Than you Know
TTITLE1=Dream Dancing
TTITLE2=Close Your Eyes
TTITLE3=It's Delovely
TTITLE4=There's A Lull In My Life
TTITLE5=I'm Old Fashioned
TTITLE6=You Go To My Head
TTITLE7=Little White Lies
TTITLE8=Sleep Warm
TTITLE9=Day In - Day Out
EXTD=YEAR: 1997
EXTT0=
EXTT1=
EXTT2=
EXTT3=
EXTT4=
EXTT5=
EXTT6=
EXTT7=
EXTT8=
EXTT9=
PLAYORDER=
